<svg width="512" height="512" viewBox="0 0 512 512" fill="none" xmlns="http://www.w3.org/2000/svg">
<g clip-path="url(#clip0_26_6)">
<path d="M493.867 444.801V121.69C493.874 114.988 491.905 108.432 488.206 102.843C484.506 97.2546 479.241 92.8809 473.068 90.2696L269.334 3.8099C260.862 0.213105 251.138 0.213105 242.666 3.8099L38.9323 90.2696C32.7595 92.8809 27.4939 97.2546 23.7944 102.843C20.0949 108.432 18.1257 114.988 18.1333 121.69V399.369C18.1333 401.633 19.0324 403.803 20.6327 405.403C22.233 407.004 24.4035 407.903 26.6667 407.903C28.9298 407.903 31.1003 407.004 32.7006 405.403C34.301 403.803 35.2 401.633 35.2 399.369V121.69C35.1964 118.339 36.181 115.062 38.0306 112.267C39.8802 109.473 42.5128 107.286 45.5989 105.98L249.332 19.5198C251.443 18.6296 253.71 18.171 256 18.171C258.29 18.171 260.557 18.6296 262.668 19.5198L466.401 105.98C469.487 107.286 472.12 109.473 473.969 112.267C475.819 115.062 476.804 118.339 476.8 121.69V443.687H450.719C448.456 443.687 446.285 444.586 444.685 446.187C443.085 447.787 442.186 449.957 442.186 452.221C442.186 454.484 443.085 456.654 444.685 458.255C446.285 459.855 448.456 460.754 450.719 460.754H486.4C491.105 460.754 494.933 464.582 494.933 469.287V485.287C494.933 489.992 491.105 493.821 486.4 493.821H25.6C20.8949 493.821 17.0667 489.992 17.0667 485.287V469.287C17.0667 464.582 20.8949 460.754 25.6 460.754H380.8C399.034 460.754 413.867 445.92 413.867 427.687V349.772C427.978 346 438.4 333.105 438.4 317.821V262.354C438.4 257.753 437.668 253.221 436.228 248.885C435.881 247.814 435.326 246.822 434.593 245.967C433.861 245.111 432.967 244.409 431.962 243.901C430.957 243.393 429.862 243.088 428.739 243.005C427.616 242.923 426.488 243.063 425.419 243.418C424.351 243.773 423.363 244.336 422.513 245.075C421.663 245.813 420.968 246.713 420.467 247.721C419.966 248.73 419.67 249.827 419.596 250.951C419.521 252.075 419.67 253.202 420.033 254.268C420.899 256.876 421.338 259.606 421.334 262.354V317.821C421.334 326.643 414.157 333.821 405.334 333.821C403.071 333.821 400.901 334.72 399.3 336.32C397.7 337.92 396.801 340.091 396.801 342.354V427.687C396.801 436.51 389.623 443.687 380.801 443.687H374.401V357.287C374.401 355.024 373.502 352.854 371.902 351.253C370.301 349.653 368.131 348.754 365.868 348.754C363.605 348.754 361.434 349.653 359.834 351.253C358.233 352.854 357.334 355.024 357.334 357.287V443.687H350.934C342.112 443.687 334.934 436.51 334.934 427.687V342.354C334.934 340.091 334.035 337.92 332.435 336.32C330.835 334.72 328.664 333.821 326.401 333.821C317.579 333.821 310.401 326.643 310.401 317.821V262.354C310.401 248.239 321.886 236.754 336.001 236.754H338.524C346.546 236.754 350.125 226.622 343.863 221.565C335.476 214.837 330.667 204.822 330.667 194.087C330.667 174.678 346.458 158.887 365.867 158.887C385.276 158.887 401.067 174.678 401.067 194.087C401.067 209.673 391.063 223.204 376.176 227.756C374.046 228.445 372.272 229.944 371.237 231.93C370.202 233.916 369.988 236.228 370.643 238.37C371.297 240.511 372.767 242.31 374.736 243.377C376.704 244.445 379.013 244.696 381.165 244.077C403.277 237.317 418.133 217.228 418.133 194.087C418.133 165.267 394.687 141.821 365.867 141.821C337.046 141.821 313.6 165.267 313.6 194.087C313.6 204.196 316.48 213.868 321.755 222.142C305.213 228.019 293.333 243.822 293.333 262.354V317.821C293.333 333.105 303.756 345.999 317.867 349.772V427.687C317.861 433.286 319.287 438.794 322.009 443.687H189.991C192.713 438.794 194.138 433.286 194.133 427.687V349.772C208.244 346 218.667 333.105 218.667 317.821V262.354C218.667 238.828 199.526 219.687 176 219.687C173.525 219.687 170.845 219.393 168.139 221.564C145.327 239.859 110.933 223.689 110.933 194.087C110.933 174.678 126.724 158.887 146.133 158.887C165.542 158.887 181.333 174.678 181.333 194.087C181.333 196.35 182.232 198.521 183.833 200.121C185.433 201.722 187.603 202.621 189.867 202.621C192.13 202.621 194.3 201.722 195.901 200.121C197.501 198.521 198.4 196.35 198.4 194.087C198.4 165.267 174.954 141.821 146.133 141.821C117.313 141.821 93.8667 165.267 93.8667 194.087C93.8667 222.908 117.313 246.354 146.133 246.354C156.928 246.354 167.518 242.961 176.294 236.761C190.274 236.92 201.6 248.338 201.6 262.354V317.821C201.6 326.643 194.422 333.821 185.6 333.821C183.337 333.821 181.166 334.72 179.566 336.32C177.966 337.92 177.067 340.091 177.067 342.354V427.687C177.067 436.51 169.889 443.687 161.067 443.687H154.667V357.287C154.667 355.024 153.768 352.854 152.167 351.253C150.567 349.653 148.397 348.754 146.133 348.754C143.87 348.754 141.7 349.653 140.099 351.253C138.499 352.854 137.6 355.024 137.6 357.287V443.687H131.2C122.378 443.687 115.2 436.51 115.2 427.687V342.354C115.2 340.091 114.301 337.92 112.701 336.32C111.1 334.72 108.93 333.821 106.667 333.821C97.8443 333.821 90.6667 326.643 90.6667 317.821V262.354C90.6667 258.895 91.3429 255.542 92.6752 252.391C93.1209 251.358 93.3576 250.246 93.3719 249.12C93.3861 247.995 93.1775 246.878 92.7581 245.833C92.3387 244.789 91.7167 243.837 90.9281 243.034C90.1395 242.231 89.1998 241.592 88.163 241.153C87.1263 240.715 86.0131 240.486 84.8875 240.479C83.7619 240.473 82.6461 240.689 81.6045 241.116C80.5629 241.543 79.616 242.171 78.8183 242.966C78.0206 243.76 77.388 244.704 76.9568 245.744C74.7318 250.998 73.5901 256.648 73.6 262.354V317.821C73.6 333.105 84.0224 345.999 98.1333 349.772V427.687C98.1277 433.286 99.5535 438.794 102.275 443.687H25.6C11.4848 443.687 0 455.172 0 469.287V485.287C0 499.402 11.4848 510.887 25.6 510.887H486.4C500.515 510.887 512 499.402 512 485.287V469.287C512 457.768 504.351 448.005 493.867 444.801Z" fill="black"/>
<path d="M155.697 101.09C156.32 102.227 155.505 101.129 173.74 122.784C175.204 124.494 177.284 125.556 179.528 125.739C181.771 125.922 183.996 125.211 185.718 123.761C187.439 122.311 188.518 120.239 188.72 117.998C188.922 115.756 188.229 113.525 186.794 111.791L181.541 105.555H224C226.263 105.555 228.434 104.656 230.034 103.055C231.634 101.455 232.533 99.2845 232.533 97.0213C232.533 94.7581 231.634 92.5876 230.034 90.9873C228.434 89.387 226.263 88.488 224 88.488H181.542L186.795 82.2512C188.23 80.5174 188.923 78.2868 188.721 76.0449C188.52 73.8031 187.44 71.7317 185.719 70.2818C183.997 68.8319 181.772 68.1209 179.529 68.3038C177.285 68.4867 175.205 69.5485 173.741 71.2581C155.559 92.8517 155.765 92.1786 155.049 94.4943C154.714 95.5818 154.6 96.7248 154.711 97.857C154.822 98.9892 155.158 100.088 155.697 101.09ZM279.467 97.0202C279.467 99.2834 280.366 101.454 281.966 103.054C283.566 104.655 285.737 105.554 288 105.554H330.458L325.205 111.79C323.77 113.524 323.077 115.755 323.279 117.997C323.48 120.238 324.56 122.31 326.281 123.76C328.003 125.21 330.228 125.921 332.471 125.738C334.715 125.555 336.795 124.493 338.259 122.783C361.683 94.9658 353.602 104.557 355.351 102.484C356.477 101.136 357.158 99.4733 357.302 97.7235C357.446 95.9736 357.045 94.2221 356.155 92.7088C355.564 91.6986 356.509 92.9285 338.26 71.256C336.796 69.5464 334.716 68.4845 332.472 68.3017C330.229 68.1188 328.004 68.8297 326.282 70.2796C324.561 71.7295 323.482 73.801 323.28 76.0428C323.079 78.2846 323.771 80.5153 325.206 82.249L330.459 88.4858H288C285.737 88.4864 283.567 89.3858 281.966 90.9862C280.366 92.5866 279.467 94.757 279.467 97.0202Z" fill="black"/>
</g>
<defs>
<clipPath id="clip0_26_6">
<rect width="512" height="512" fill="white"/>
</clipPath>
</defs>
</svg>
