<svg width="412" height="412" viewBox="0 0 412 412" fill="none" xmlns="http://www.w3.org/2000/svg">
<path d="M105.258 121.761C101.251 117.761 99 112.336 99 106.68C99 101.023 101.251 95.5984 105.258 91.5982L190.755 6.27221C192.735 4.28444 195.09 2.70698 197.683 1.63057C200.277 0.55415 203.058 9.53699e-06 205.866 9.53699e-06C208.675 9.53699e-06 211.456 0.55415 214.05 1.63057C216.643 2.70698 218.998 4.28444 220.978 6.27221L306.475 91.5982C308.516 93.5659 310.144 95.9198 311.265 98.5223C312.385 101.125 312.975 103.924 312.999 106.756C313.024 109.589 312.483 112.398 311.408 115.019C310.334 117.641 308.747 120.022 306.74 122.025C304.733 124.028 302.346 125.612 299.719 126.685C297.093 127.757 294.278 128.297 291.44 128.272C288.602 128.248 285.797 127.659 283.19 126.541C280.582 125.423 278.223 123.798 276.252 121.761L227.241 72.8478L227.241 234.669C227.241 240.326 224.989 245.752 220.98 249.752C216.972 253.753 211.535 256 205.866 256C200.198 256 194.761 253.753 190.753 249.752C186.744 245.752 184.492 240.326 184.492 234.669L184.492 72.8478L135.481 121.761C131.473 125.76 126.037 128.006 120.37 128.006C114.702 128.006 109.266 125.76 105.258 121.761Z" fill="#7EB0C3"/>
<path d="M206.071 284C223.045 284 239.324 290.743 251.326 302.745C263.328 314.747 270.071 331.026 270.071 348C270.071 364.974 263.328 381.253 251.326 393.255C239.324 405.257 223.045 412 206.071 412C189.097 412 172.819 405.257 160.816 393.255C148.814 381.253 142.071 364.974 142.071 348C142.071 331.026 148.814 314.747 160.816 302.745C172.819 290.743 189.097 284 206.071 284Z" fill="#7EB0C3" fill-opacity="0.3"/>
</svg>
