<svg width="100" height="100" viewBox="0 0 100 100" fill="none" xmlns="http://www.w3.org/2000/svg">
<path d="M15.2675 6.76161C12.9187 4.4128 9.11047 4.4128 6.76161 6.76161C4.4128 9.11047 4.4128 12.9187 6.76161 15.2675L41.494 49.9998L6.76197 84.7321C4.41316 87.0808 4.41316 90.8892 6.76197 93.2379C9.11083 95.5866 12.919 95.5866 15.2678 93.2379L49.9998 58.5056L84.7321 93.2379C87.0808 95.5866 90.8892 95.5866 93.2379 93.2379C95.5866 90.8892 95.5866 87.0808 93.2379 84.7321L58.5056 49.9998L93.2385 15.2675C95.5872 12.9187 95.5872 9.11047 93.2385 6.76161C90.8898 4.4128 87.0814 4.4128 84.7327 6.76161L49.9998 41.494L15.2675 6.76161Z" fill="black"/>
</svg>
